<svg version="1.1" id="Layer_1" xmlns="http://www.w3.org/2000/svg" xmlns:xlink="http://www.w3.org/1999/xlink" x="0px" y="0px"
	 viewBox="0 0 144.2 80.1" style="enable-background:new 0 0 144.2 80.1;" xml:space="preserve">

<g>


		<path fill="#971B2F" class="st1" d="M118.2,50.5c4.7,0.9,15.1,2.7,26,2.7s21.2-1.8,26-2.7v44.9c0,5.1-4.6,7-22.1,13.2c-1.2,0.4-2.5,0.9-3.9,1.4
			c-1.4-0.5-2.6-1-3.9-1.4c-17.5-6.3-22.1-8.1-22.1-13.2C118.2,89.2,118.2,59.3,118.2,50.5 M116.3,48c-0.1,0-0.2,0.1-0.2,0.2
			c0,3.4,0,40.2,0,47.2s6.9,9.1,28,16.7c0,0,0.1,0,0.1,0c0,0,0,0,0.1,0c21.1-7.6,28-9.5,28-16.7V48.3c0-0.1-0.1-0.2-0.2-0.2
			c0,0,0,0,0,0c-1.9,0.4-15.2,3.1-27.8,3.1C130.9,51.2,118.3,48.5,116.3,48C116.4,48.1,116.4,48.1,116.3,48L116.3,48z"/>
		<path fill="#971B2F" d="M-26.1,50.5c4.7,0.9,15.1,2.7,26,2.7s21.2-1.8,26-2.7v44.9c0,5.1-4.6,7-22.1,13.2c-1.2,0.4-2.5,0.9-3.9,1.4
			c-1.4-0.5-2.7-1-3.9-1.4c-17.5-6.3-22.1-8.1-22.1-13.2C-26,89.2-26,59.3-26.1,50.5 M-27.9,48c-0.1,0-0.2,0.1-0.2,0.2
			c0,3.4,0,40.2,0,47.2s6.9,9.1,28,16.7c0,0,0,0,0.1,0c0,0,0,0,0.1,0c21.1-7.6,28-9.5,28-16.7V48.3c0-0.1-0.1-0.2-0.2-0.2
			c0,0,0,0,0,0c-1.9,0.4-15.2,3.1-27.8,3.1C-13.3,51.2-25.9,48.5-27.9,48C-27.8,48.1-27.8,48.1-27.9,48L-27.9,48z"/>
		<path fill="#971B2F" d="M118.2-29.6c4.7,0.9,15.1,2.7,26,2.7s21.2-1.8,26-2.7v44.9c0,5.1-4.6,7-22.1,13.2c-1.2,0.4-2.5,0.9-3.9,1.4
			c-1.4-0.5-2.6-1-3.9-1.4c-17.5-6.3-22.1-8.1-22.1-13.2C118.2,9.1,118.2-20.8,118.2-29.6 M116.3-32.1c-0.1,0-0.2,0.1-0.2,0.2
			c0,3.4,0,40.2,0,47.2s6.9,9.1,28,16.7c0,0,0.1,0,0.1,0c0,0,0,0,0.1,0c21.1-7.6,28-9.5,28-16.7v-47.1c0-0.1-0.1-0.2-0.2-0.2
			c0,0,0,0,0,0c-1.9,0.4-15.2,3.1-27.8,3.1C130.9-28.9,118.3-31.6,116.3-32.1C116.4-32,116.4-32,116.3-32.1L116.3-32.1z"/>
		<path fill="#971B2F" d="M46,10.4c4.7,0.9,15.1,2.7,26,2.7s21.2-1.8,26-2.7v44.9c0,5.1-4.6,7-22.1,13.2c-1.2,0.4-2.5,0.9-3.9,1.4
			c-1.4-0.5-2.7-1-3.9-1.4c-17.5-6.3-22.1-8.1-22.1-13.2C46.1,49.2,46.1,19.3,46,10.4 M44.2,8C44.1,8,44,8.1,44,8.2
			c0,3.4,0,40.2,0,47.2s6.9,9.1,28,16.7c0,0,0,0,0.1,0c0,0,0,0,0.1,0c21.1-7.6,28-9.5,28-16.7V8.2c0-0.1-0.1-0.2-0.2-0.2
			c0,0,0,0,0,0c-1.9,0.4-15.2,3.1-27.8,3.1C58.8,11.2,46.2,8.4,44.2,8C44.3,8,44.3,8,44.2,8L44.2,8z"/>
		<path fill="#971B2F" d="M-26.1-29.6c4.7,0.9,15.1,2.7,26,2.7s21.2-1.8,26-2.7v44.9c0,5.1-4.6,7-22.1,13.2C2.6,29,1.4,29.5,0,29.9
			c-1.4-0.5-2.7-1-3.9-1.4C-21.4,22.3-26,20.4-26,15.3C-26,9.1-26-20.8-26.1-29.6 M-27.9-32.1c-0.1,0-0.2,0.1-0.2,0.2
			c0,3.4,0,40.2,0,47.2s6.9,9.1,28,16.7c0,0,0,0,0.1,0c0,0,0,0,0.1,0c21.1-7.6,28-9.5,28-16.7v-47.1c0-0.1-0.1-0.2-0.2-0.2
			c0,0,0,0,0,0c-1.9,0.4-15.2,3.1-27.8,3.1C-13.3-28.9-25.9-31.6-27.9-32.1C-27.8-32-27.8-32-27.9-32.1L-27.9-32.1z"/>

</g>
</svg>
