<svg version="1.1" id="one-color_logo" xmlns="http://www.w3.org/2000/svg" xmlns:xlink="http://www.w3.org/1999/xlink" x="0px"
	 y="0px" viewBox="0 0 159.1 181.8" style="enable-background:new 0 0 159.1 181.8;" xml:space="preserve">
<style type="text/css">
	.st0{fill:#BA0C2F;}
	.st1{fill:#971B2F;}
</style>
<path class="st0" d="M159.1,0.6v133.7c0,20.6-19.5,25.9-79.3,47.5c-0.1,0-0.3,0-0.4,0c-59.8-21.5-79.3-26.8-79.3-47.5
	C0.1,114.6,0,10.2,0,0.6C0,0.2,0.3-0.1,0.7,0c5.4,1.2,41.2,8.9,78.9,8.9c35.6,0,73.3-7.7,78.8-8.8C158.8,0,159.1,0.3,159.1,0.6z"/>
<path class="st1" d="M116.8,29.9c-0.4-0.3-0.2-1,0.3-1l7.8-0.2c0.2,0,0.4-0.2,0.5-0.4l2.6-7.4c0.2-0.5,0.9-0.5,1.1,0l2.6,7.4
	c0.1,0.2,0.3,0.4,0.5,0.4l7.8,0.2c0.5,0,0.8,0.7,0.3,1l-6.2,4.7c-0.2,0.1-0.3,0.4-0.2,0.6l2.3,7.5c0.2,0.5-0.4,0.9-0.9,0.6l-6.4-4.5
	c-0.2-0.1-0.5-0.1-0.6,0l-6.4,4.5c-0.4,0.3-1-0.1-0.9-0.6l2.3-7.5c0.1-0.2,0-0.5-0.2-0.6L116.8,29.9z M74.1,38.7
	c0.2,0.1,0.3,0.4,0.2,0.6L72,46.8c-0.2,0.5,0.4,0.9,0.9,0.6l6.4-4.5c0.2-0.1,0.5-0.1,0.7,0l6.4,4.5c0.4,0.3,1-0.1,0.9-0.6l-2.3-7.5
	c-0.1-0.2,0-0.5,0.2-0.6l6.3-4.6c0.4-0.3,0.2-1-0.3-1L83.1,33c-0.2,0-0.5-0.2-0.5-0.4l-2.5-7.4c-0.2-0.5-0.9-0.5-1.1,0l-2.5,7.4
	C76.5,32.8,76.3,33,76,33l-7.8,0.1c-0.5,0-0.8,0.7-0.3,1L74.1,38.7z M39.2,132.1c-4.2,0-6.8,6.1-6.8,6.1c-0.1,0.1-0.2,0-0.2-0.1
	c1.1-2.9,2.8-6,2.8-9.6c0-3-3-6.2-4.1-7.3c-0.2-0.2-0.6-0.2-0.8,0c-1.1,1.1-4.1,4.2-4.1,7.3c0,3.8,1.7,6.8,2.8,9.6
	c0,0.1-0.1,0.2-0.2,0.1c0,0-2.6-6.1-6.8-6.1c-2.8,0-4.4,2.1-4.4,4c0,1.5,1,2.5,2,2.6c1,0.1,1.9-0.7,2-1.6c0-0.2,0.1-0.4,0.3-0.4
	c0.4-0.2,1.3-0.3,2.9,0.4c2.4,1.1,4.7,4.7,4.7,4.7c0.1,0.1,0.1,0.3-0.1,0.4l-0.7,0.7c-0.6,0.6-0.6,1.5,0,2.1l1.5,1.6
	c0.2,0.2,0.6,0.2,0.8,0l1.5-1.6c0.6-0.6,0.6-1.5,0-2.1l-0.7-0.7c-0.1-0.1-0.1-0.3-0.1-0.4c0,0,2.3-3.6,4.7-4.7
	c1.6-0.7,2.5-0.6,2.9-0.4c0.2,0.1,0.3,0.2,0.3,0.4c0.1,1,1,1.7,2,1.6c1-0.1,2-1,2-2.6C43.6,134.2,42,132.1,39.2,132.1z M25,34.6
	c0.2,0.1,0.3,0.4,0.2,0.6L23,42.7c-0.2,0.5,0.4,0.9,0.9,0.6l6.4-4.5c0.2-0.1,0.5-0.1,0.6,0l6.4,4.5c0.4,0.3,1-0.1,0.9-0.6l-2.3-7.5
	c-0.1-0.2,0-0.5,0.2-0.6l6.2-4.7c0.4-0.3,0.2-1-0.3-1l-7.8-0.2c-0.2,0-0.4-0.2-0.5-0.4l-2.6-7.4c-0.2-0.5-0.9-0.5-1.1,0l-2.6,7.4
	c-0.1,0.2-0.3,0.4-0.5,0.4l-7.8,0.2c-0.5,0-0.8,0.7-0.3,1L25,34.6z M159.1,0.6v133.7c0,20.6-19.5,25.9-79.3,47.5c-0.1,0-0.3,0-0.4,0
	c-59.8-21.5-79.3-26.8-79.3-47.5C0.1,114.6,0,10.2,0,0.6C0,0.2,0.3-0.1,0.7,0c5.4,1.2,41.2,8.9,78.9,8.9c35.6,0,73.3-7.7,78.8-8.8
	C158.8,0,159.1,0.3,159.1,0.6z M152.3,73.1c-4,0.8-15.8,3-30.2,5c-0.3,0-0.5,0.3-0.5,0.6v17c0,0.3,0.3,0.6,0.6,0.6
	c14.4-2,26.2-4.2,30.1-4.9V73.1z M6.8,9.2l0,45.8c3.9,0.8,15.7,3,30.1,4.9c0.3,0,0.6-0.2,0.6-0.6l0-5.7c0-0.4,0.4-0.6,0.7-0.5
	c15.2,3.9,24.8,0.6,41,8.2c0.2,0.1,0.3,0.1,0.5,0c16.3-7.6,25.9-4.4,41-8.2c0.4-0.1,0.7,0.2,0.7,0.5l0,5.7c0,0.3,0.3,0.6,0.6,0.6
	c14.4-2,26.2-4.2,30.1-4.9V9.2c0-0.4-0.3-0.6-0.7-0.6c-5.6,1-44.7,8.1-72.1,8.1c-29,0-66.6-7.1-72.1-8.2C7.1,8.5,6.8,8.8,6.8,9.2z
	 M114.1,61.1c-9.8,1.5-21.7,0.1-34.2,7.5c-0.2,0.1-0.4,0.1-0.6,0c-12.5-7.4-24.4-6-34.2-7.5c-0.3-0.1-0.7,0.2-0.7,0.6v46.1
	c0,0.3,0.2,0.5,0.5,0.6c18.4,2.4,25,1.6,34.4,7.3c0.2,0.1,0.4,0.1,0.6,0c9.4-5.7,16-4.9,34.4-7.3c0.3,0,0.5-0.3,0.5-0.6V61.6
	C114.8,61.3,114.4,61,114.1,61.1z M6.8,91.2c3.9,0.8,15.7,3,30.1,4.9c0.3,0,0.6-0.2,0.6-0.6v-17c0-0.3-0.2-0.5-0.5-0.6
	c-14.5-2-26.3-4.2-30.3-5L6.8,91.2z M152.3,131.6v-22.2c-5.9,1.2-29.3,5.5-52.8,7.5c-7.4,0.8-11.3,1.6-16.3,4.8l-3.3,2
	c-0.2,0.1-0.4,0.1-0.6,0l-3.3-2c-5.1-3.2-9-3.9-16.5-4.8c-23.4-1.9-46.8-6.3-52.7-7.4l0,22.2c0,18.9,17.8,23.7,72.5,43.4
	c0.1,0,0.3,0,0.4,0C134.5,155.3,152.3,150.4,152.3,131.6z M137.2,132.1c-4.2,0-6.8,6.1-6.8,6.1c-0.1,0.1-0.2,0-0.2-0.1
	c1.1-2.9,2.8-6,2.8-9.6c0-3-3-6.2-4.1-7.3c-0.2-0.2-0.6-0.2-0.8,0c-1.1,1.1-4.1,4.2-4.1,7.3c0,3.8,1.7,6.8,2.8,9.6
	c0,0.1-0.1,0.2-0.2,0.1c0,0-2.6-6.1-6.8-6.1c-2.8,0-4.4,2.1-4.4,4c0,1.5,1,2.5,2,2.6c1,0.1,1.9-0.7,2-1.6c0-0.2,0.1-0.4,0.3-0.4
	c0.4-0.2,1.3-0.3,2.9,0.4c2.4,1.1,4.7,4.7,4.7,4.7c0.1,0.1,0.1,0.3-0.1,0.4l-0.7,0.7c-0.6,0.6-0.6,1.5,0,2.1l1.5,1.6
	c0.2,0.2,0.6,0.2,0.8,0l1.5-1.6c0.6-0.6,0.6-1.5,0-2.1l-0.7-0.7c-0.1-0.1-0.1-0.3-0.1-0.4c0,0,2.3-3.6,4.7-4.7
	c1.6-0.7,2.5-0.6,2.9-0.4c0.2,0.1,0.3,0.2,0.3,0.4c0.1,1,1,1.7,2,1.6c1-0.1,2-1,2-2.6C141.7,134.2,140,132.1,137.2,132.1z
	 M90.6,146.1c-5.3,0-8.6,7.7-8.6,7.7c-0.1,0.1-0.3,0-0.2-0.1c1.4-3.7,3.6-7.6,3.6-12.3c0-3.9-4-8.2-5.3-9.4c-0.2-0.2-0.6-0.2-0.8,0
	c-1.3,1.2-5.3,5.3-5.3,9.4c0,4.9,2.2,8.6,3.6,12.3c0.1,0.1-0.1,0.2-0.2,0.1c0,0-3.3-7.7-8.6-7.7c-3.5,0-5.6,2.7-5.6,5.1
	c0,2,1.3,3.2,2.6,3.3c1.3,0.1,2.4-0.9,2.5-2.2c0-0.2,0.1-0.3,0.3-0.4c0.5-0.3,1.6-0.6,3.8,0.4c3.1,1.4,5.9,6,5.9,6
	c0.1,0.2,0.1,0.4-0.1,0.6l-0.9,0.9c-0.7,0.7-0.7,1.9,0,2.6l2.1,2.1c0.2,0.2,0.6,0.2,0.8,0l2.1-2.1c0.7-0.7,0.8-1.9,0-2.6l-0.9-0.9
	c-0.1-0.2-0.2-0.4-0.1-0.6c0,0,2.9-4.6,5.9-6c2.2-1,3.4-0.7,3.8-0.4c0.2,0.1,0.3,0.2,0.3,0.4c0.1,1.3,1.2,2.2,2.5,2.2
	c1.2-0.1,2.6-1.3,2.6-3.3C96.2,148.8,94.1,146.1,90.6,146.1z"/>
</svg>
